<?xml version="1.0" encoding="UTF-8" standalone="no"?>
<svg
   version="1.1"
   width="779.8111"
   height="779.8111"
   id="svg2"
   sodipodi:docname="electrum_darkblue.svg"
   inkscape:version="1.2.2 (732a01da63, 2022-12-09)"
   xmlns:inkscape="http://www.inkscape.org/namespaces/inkscape"
   xmlns:sodipodi="http://sodipodi.sourceforge.net/DTD/sodipodi-0.dtd"
   xmlns:xlink="http://www.w3.org/1999/xlink"
   xmlns="http://www.w3.org/2000/svg"
   xmlns:svg="http://www.w3.org/2000/svg"
   xmlns:rdf="http://www.w3.org/1999/02/22-rdf-syntax-ns#"
   xmlns:cc="http://creativecommons.org/ns#"
   xmlns:dc="http://purl.org/dc/elements/1.1/">
  <sodipodi:namedview
     id="namedview2612"
     pagecolor="#ffffff"
     bordercolor="#666666"
     borderopacity="1.0"
     inkscape:showpageshadow="2"
     inkscape:pageopacity="0.0"
     inkscape:pagecheckerboard="0"
     inkscape:deskcolor="#d1d1d1"
     showgrid="false"
     inkscape:zoom="1.155408"
     inkscape:cx="253.15732"
     inkscape:cy="528.81751"
     inkscape:window-width="2048"
     inkscape:window-height="1081"
     inkscape:window-x="-8"
     inkscape:window-y="-8"
     inkscape:window-maximized="1"
     inkscape:current-layer="svg2" />
  <metadata
     id="metadata53">
    <rdf:RDF>
      <cc:Work
         rdf:about="">
        <dc:format>image/svg+xml</dc:format>
        <dc:type
           rdf:resource="http://purl.org/dc/dcmitype/StillImage" />
      </cc:Work>
    </rdf:RDF>
  </metadata>
  <defs
     id="defs4">
    <linearGradient
       id="linearGradient8562">
      <stop
         style="stop-color:#d7d2bb;stop-opacity:1;"
         offset="0"
         id="stop8558" />
      <stop
         style="stop-color:#9f9874;stop-opacity:1;"
         offset="1"
         id="stop8560" />
    </linearGradient>
    <linearGradient
       id="linearGradient8556">
      <stop
         style="stop-color:#d7d2bb;stop-opacity:1;"
         offset="0"
         id="stop8552" />
      <stop
         style="stop-color:#9f9874;stop-opacity:1;"
         offset="1"
         id="stop8554" />
    </linearGradient>
    <linearGradient
       id="linearGradient8550">
      <stop
         style="stop-color:#d7d2bb;stop-opacity:1;"
         offset="0"
         id="stop8546" />
      <stop
         style="stop-color:#9f9874;stop-opacity:1;"
         offset="1"
         id="stop8548" />
    </linearGradient>
    <linearGradient
       id="linearGradient3987">
      <stop
         style="stop-color:#1382ef;stop-opacity:1;"
         offset="0"
         id="stop4032" />
      <stop
         style="stop-color:#0056c0;stop-opacity:1;"
         offset="1"
         id="stop3991" />
    </linearGradient>
    <radialGradient
       xlink:href="#linearGradient8556"
       id="radialGradient3786"
       cx="523.18433"
       cy="732.08508"
       fx="523.18433"
       fy="732.08508"
       r="146.04732"
       gradientTransform="matrix(-0.89061708,0.86297075,-0.78291311,-0.80799475,1427.0215,361.93374)"
       gradientUnits="userSpaceOnUse" />
    <radialGradient
       xlink:href="#linearGradient8562"
       id="radialGradient3796"
       cx="529.57996"
       cy="728.15845"
       fx="529.57996"
       fy="728.15845"
       r="146.04732"
       gradientTransform="matrix(-0.87083717,0.55292729,-0.71897156,-1.1320773,466.94349,499.54907)"
       gradientUnits="userSpaceOnUse" />
    <radialGradient
       xlink:href="#linearGradient8550"
       id="radialGradient3800"
       cx="505.65533"
       cy="726.3916"
       fx="505.65533"
       fy="726.3916"
       r="146.04732"
       gradientTransform="matrix(-0.94821917,1.3404019,-1.4302101,-1.0037148,1646.3221,-657.08623)"
       gradientUnits="userSpaceOnUse" />
    <linearGradient
       inkscape:collect="always"
       xlink:href="#e"
       id="linearGradient17976"
       gradientUnits="userSpaceOnUse"
       gradientTransform="matrix(41.015312,0,0,39.43171,675.31735,-543.71706)"
       x1="-8.5571909"
       y1="32.323803"
       x2="-8.413372"
       y2="14.346511" />
    <linearGradient
       id="e"
       gradientTransform="matrix(26.06595,0,0,25.059543,440.40944,-334.85836)"
       gradientUnits="userSpaceOnUse"
       x1="-8.5571909"
       x2="-8.413372"
       y1="32.323803"
       y2="14.346511">
      <stop
         offset="0"
         stop-color="#126af4"
         id="stop10"
         style="stop-color:#9f9874;stop-opacity:1;" />
      <stop
         offset="1"
         stop-color="#01c6fe"
         id="stop12"
         style="stop-color:#d7d2bb;stop-opacity:1;" />
    </linearGradient>
    <linearGradient
       inkscape:collect="always"
       xlink:href="#l"
       id="linearGradient17990"
       gradientUnits="userSpaceOnUse"
       gradientTransform="matrix(26.332541,0,0,26.332551,-10166.462,-13618.791)"
       x1="392.58731"
       y1="543.40039"
       x2="407.43753"
       y2="519.19128" />
    <linearGradient
       id="l"
       gradientUnits="userSpaceOnUse"
       x1="400.95444"
       x2="400.95444"
       y1="547.2132"
       y2="517.22266">
      <stop
         offset="0"
         stop-color="#e3e3e3"
         id="stop33" />
      <stop
         offset="1"
         stop-color="#fcf9f9"
         id="stop35" />
    </linearGradient>
    <linearGradient
       inkscape:collect="always"
       xlink:href="#l"
       id="linearGradient17994"
       gradientUnits="userSpaceOnUse"
       gradientTransform="matrix(17.485591,0,0,17.485591,-34.850382,-33.301868)"
       x1="11.793096"
       y1="41.384331"
       x2="34.156879"
       y2="4.926425" />
    <linearGradient
       inkscape:collect="always"
       xlink:href="#linearGradient5724"
       id="linearGradient17998"
       gradientUnits="userSpaceOnUse"
       gradientTransform="matrix(17.485591,0,0,17.485591,609.34953,235.44412)"
       x1="-19.072142"
       y1="20.72364"
       x2="1.5449495"
       y2="1.1720309" />
    <linearGradient
       inkscape:collect="always"
       id="linearGradient5724">
      <stop
         style="stop-color:#cccccc;stop-opacity:1;"
         offset="0"
         id="stop5720" />
      <stop
         style="stop-color:#ffffff;stop-opacity:1;"
         offset="1"
         id="stop5722" />
    </linearGradient>
  </defs>
  <g
     id="g24337"
     transform="translate(4.7602238,3.894692)">
    <circle
       cx="384.80377"
       cy="386.35239"
       fill="url(#e)"
       r="367.19742"
       id="circle38-1"
       style="fill:url(#linearGradient17976);stroke-width:17.4856" />
    <path
       d="m 510.07169,73.114393 c -28.27257,6.691397 -60.88741,24.427021 -96.44396,52.934967 -10.13741,8.13888 -21.32263,18.24796 -32.71719,29.1995 l -36.4397,-36.43974 c -3.68615,-3.68613 -9.78178,-8.18011 -19.56884,-14.71935 -15.36883,-10.346206 -32.63343,-18.903011 -46.7193,-23.052228 -6.93382,-2.07453 -15.50817,-3.254985 -23.59874,-3.48346 -2.02882,-0.05665 -3.8358,0.14319 -5.77159,0.204872 A 337.65277,337.65277 0 0 0 201.0002,103.20184 c -6.92525,9.03924 -12.33326,20.21943 -16.22198,34.01496 -4.62436,22.75923 -4.42255,21.69633 -4.95197,58.22844 0.28972,11.24315 0.65867,16.98442 1.12693,23.15474 -51.30667,12.6662 -89.491516,30.70686 -113.519729,53.75453 A 337.65277,337.65277 0 0 0 48.75255,354.31822 c 4.650604,9.39372 11.277911,18.55217 20.046953,27.32123 L 171.15169,483.99162 c -11.66981,35.29824 -18.86892,68.31794 -20.35431,96.00001 -1.17118,20.53646 0.10495,38.14785 3.92741,52.90073 A 337.65277,337.65277 0 0 0 384.80381,724.0087 337.65277,337.65277 0 0 0 722.46017,386.35237 337.65277,337.65277 0 0 0 510.07169,73.114393 Z"
       fill-opacity="0.078431"
       stroke-width="24.8542"
       id="path40-4" />
    <path
       d="M 385.14533,1.3278621 A 384.68296,384.68311 0 0 0 0.4623185,386.01085 384.68296,384.68311 0 0 0 385.14533,770.69385 384.68296,384.68311 0 0 0 769.82833,386.01085 384.68296,384.68311 0 0 0 385.14533,1.3278621 Z M 384.80381,48.696027 A 337.65277,337.65277 0 0 1 722.46017,386.35237 337.65277,337.65277 0 0 1 384.80381,724.0087 337.65277,337.65277 0 0 1 47.147481,386.35237 337.65277,337.65277 0 0 1 384.80381,48.696027 Z"
       fill="url(#c)"
       id="path1714-2"
       style="fill:url(#linearGradient17990);stroke-width:17.4856" />
    <path
       d="m 534.87556,70.009995 c -33.27,-0.273793 -74.77351,18.780756 -121.24911,56.043145 -22.81826,18.31986 -50.57894,45.69677 -75.36933,73.43337 -10.15012,0.27144 -19.88431,0.50447 -34.81313,1.16157 -14.60459,0.84609 -38.38654,3.18226 -66.0127,6.48516 -12.41618,1.96021 -19.0231,3.28062 -27.39237,5.03322 -0.79017,-7.65755 -1.41824,-15.27736 -1.74226,-22.87526 0,-24.43175 0.33172,-29.14286 2.67793,-38.94307 5.76019,-24.73243 17.15822,-40.10463 32.19975,-43.29872 20.69236,-4.36761 46.43336,5.99575 82.46746,32.74827 11.5199,8.65358 25.4987,1.25976 23.77877,-12.38943 -0.73696,-5.95121 -6.17622,-11.07034 -24.52086,-23.32713 -15.36885,-10.346367 -32.63279,-18.887596 -46.71865,-23.036654 -6.93381,-2.07453 -15.49462,-3.256087 -23.58519,-3.484562 -8.09056,-0.228475 -15.71428,0.487792 -20.77818,2.19396 -24.84151,8.516995 -40.41555,26.860946 -49.04167,57.462616 -4.62436,22.75924 -4.40702,21.70483 -4.93645,58.2371 0.28974,11.24308 0.62878,16.96312 1.09705,23.13345 -52.8732,13.05293 -91.934717,31.78058 -115.796466,55.8494 -11.301702,11.30148 -17.599199,21.20835 -21.229893,33.68391 -2.56594,8.65349 -2.56594,25.78482 0,34.32918 7.042685,23.47677 26.898345,45.5265 58.237009,65.04478 21.75712,13.43094 28.25391,14.94793 35.29711,7.90474 3.30436,-3.30313 4.03302,-4.88215 4.03302,-8.84043 0,-7.67076 -2.34636,-10.77928 -12.58306,-16.64836 -64.178721,-36.14296 -75.477717,-72.3887 -32.619134,-104.60074 20.828164,-15.62785 49.837914,-28.01791 88.178224,-37.84599 0.37735,2.51195 0.41039,3.13313 0.87114,6.19474 6.2543,36.60069 18.29223,78.54531 33.97424,119.05513 l -4.71057,9.13083 c -37.0981,71.65837 -60.91978,144.71172 -63.78645,198.13483 -2.34747,41.16598 5.13613,70.58824 23.26254,88.82354 19.81849,19.84605 47.76849,24.10299 83.69351,12.58305 13.53982,-4.36762 40.43823,-18.00904 56.10756,-28.68293 11.30145,-7.56186 13.75973,-9.81879 15.26101,-13.77683 1.50113,-3.95852 1.50113,-5.24001 0,-9.38889 -2.23837,-6.19691 -6.9374,-9.61476 -13.32516,-9.61476 -4.14941,0 -7.00717,1.28869 -17.68082,8.55001 -24.21394,16.43362 -46.92374,26.68296 -65.78682,29.87673 -26.12449,4.47698 -42.88713,-7.06309 -50.55812,-34.36144 -3.30214,-11.8475 -3.08197,-49.77309 0.54834,-69.40045 5.54176,-31.22956 15.23448,-63.67018 29.10238,-97.793 6.90169,-17.01357 17.60751,-40.10609 22.58497,-49.52564 2.08368,4.5872 3.92632,9.39274 6.09796,13.87364 20.62279,48.0409 48.03578,97.18789 74.78859,136.9618 31.93913,47.41733 65.39756,86.56042 97.5994,114.95759 32.20185,28.39718 63.15182,46.03899 90.08183,50.46132 l -0.54835,0.0961 c 23.66741,3.82183 43.62476,-2.03615 59.07587,-17.48725 12.58464,-12.8029 28.11725,-30.59588 32.81278,-55.65587 2.86649,-15.66933 12.35938,-132.93626 -7.06589,-120.21663 -9.83854,7.8415 -7.7794,21.30268 -11.61513,71.75571 -1.47299,19.37386 -5.9252,43.75011 -10.80854,57.26909 -6.59385,18.25414 -30.9993,32.32618 -40.0077,36.74899 -31.86805,3.84918 -53.4607,-10.54915 -79.98311,-30.19936 C 417.91623,646.1831 393.8311,617.61727 371.81202,585.72139 349.79294,553.82525 326.09275,520.1064 307.73517,487.2186 290.67155,456.63063 270.23612,416.18997 252.27291,371.16402 l 2.87152,-5.64623 c 17.95271,-30.66985 37.14803,-60.51853 57.68851,-89.56563 l 8.09833,-10.87306 22.77857,-28.90878 7.80797,-8.77588 h 5.32359 c 129.5858,0 257.84142,29.30174 325.86912,74.20782 13.86744,9.17219 30.60309,25.94878 35.61979,35.7488 3.63043,6.8247 3.96841,8.6175 3.96841,17.68081 0,8.87197 -0.3158,10.99012 -3.29085,16.42251 -8.32597,15.9969 -30.3057,32.64469 -58.55967,44.49245 -13.10319,5.54148 -16.64833,9.15148 -16.64833,16.71289 0,6.38803 4.17519,11.73647 10.45352,13.64776 4.0674,1.17365 5.45069,0.96311 12.71217,-1.90358 45.64295,-18.04413 76.88631,-46.07081 83.27401,-74.43366 1.78737,-7.671 1.67297,-22.10155 -0.12902,-29.55408 -3.41249,-14.63188 -15.54497,-33.35965 -29.52177,-45.94431 -61.1983,-54.92019 -190.01641,-90.51404 -343.22734,-95.27633 2.75037,-2.90535 5.35725,-5.97278 7.71116,-8.3565 44.57847,-45.31519 85.94479,-74.94081 122.08799,-87.3071 11.51992,-4.039547 13.85479,-4.484699 25.81141,-4.484699 11.11035,0 13.74764,0.316592 18.55195,2.774749 6.52449,3.08458 13.87623,10.65761 17.61632,17.8099 7.34248,14.60431 9.78086,40.19841 6.25925,67.49679 -1.1731,9.39061 -2.12943,20.26453 -2.12943,24.00462 0,6.30574 0.24112,7.27217 3.87171,10.35684 2.97555,2.78597 4.99123,3.5168 8.84047,3.5168 6.19652,0 11.92776,-3.2987 13.64778,-7.77568 5.10607,-13.21188 7.78782,-60.01993 4.485,-79.7566 -5.1322,-30.30129 -18.15402,-50.779712 -38.84622,-60.689115 -9.14504,-4.42238 -19.30294,-6.684316 -30.39295,-6.77558 z M 313.89761,228.20175 c -1.51005,1.88647 -3.29427,3.88462 -4.74286,5.74305 l -2.87152,3.42 -23.55292,30.48974 c 0,0.54607 -4.88254,8.11383 -10.96984,17.06779 -6.08777,8.84463 -14.72052,21.8609 -19.19724,29.23144 -4.36787,7.15203 -8.64073,13.65874 -9.4857,14.61571 l -3.8717,7.09813 c -10.62815,-30.75473 -19.67763,-62.85095 -25.16615,-95.11506 9.86233,-2.1117 16.39357,-3.50832 27.36011,-5.87209 32.90572,-5.03178 32.71885,-4.88269 55.88172,-6.0334 z"
       fill="url(#d)"
       stroke-width="24.8542"
       id="path1720-4"
       style="fill:url(#linearGradient17994)" />
    <path
       id="path5718-1"
       style="fill:url(#linearGradient17998);fill-opacity:1;fill-rule:nonzero;stroke-width:18.8717;stroke-linecap:square;stroke-linejoin:round"
       d="M 463.11257,287.59353 A 116.44123,116.44123 0 0 0 346.65578,404.05031 116.44123,116.44123 0 0 0 463.11257,520.50706 116.44123,116.44123 0 0 0 579.53518,404.05031 116.44123,116.44123 0 0 0 463.11257,287.59353 Z m -1.98079,60.03841 c 66.10786,0 75.39036,0.0263 75.64568,0.10323 0.18535,0.0541 0.37436,0.16611 0.51232,0.3074 0.42193,0.43293 0.37558,0.10495 0.37558,5.70331 0,4.99186 0.0192,5.04207 -0.10322,5.29347 -0.1468,0.30338 -0.44395,0.55674 -0.75135,0.64889 -0.16787,0.0507 -19.35078,0.0682 -75.74812,0.0682 H 385.5878 l -0.3074,-0.17135 c -0.22888,-0.1207 -0.38328,-0.23518 -0.51232,-0.44396 l -0.17135,-0.3074 -0.035,-5.05442 c -0.0175,-5.70662 -0.0332,-5.35217 0.44396,-5.77161 0.15217,-0.13469 0.36021,-0.26893 0.51233,-0.3074 0.19112,-0.0489 20.33301,-0.0682 75.61153,-0.0682 z m -55.1206,21.13981 h 55.08645 c 45.22304,0 55.11327,0.005 55.29134,0.0682 0.32455,0.11533 0.6809,0.50147 0.78546,0.85382 0.13107,0.44097 0.13296,9.80508 0,10.24547 -0.0875,0.29394 -0.37804,0.65273 -0.68298,0.81954 -0.12243,0.0664 -4.00583,0.077 -24.35005,0.10322 l -24.21345,0.035 -0.27329,0.13642 c -0.32663,0.17485 -0.63787,0.53838 -0.71727,0.85383 -0.0472,0.18691 -0.0682,12.60561 -0.0682,45.18248 0,40.48336 0.0125,44.95139 -0.0682,45.14834 -0.11535,0.27734 -0.34867,0.52108 -0.64889,0.68299 -0.23501,0.12761 -0.22348,0.12589 -5.19105,0.13643 -4.02686,0.01 -5.02131,-0.006 -5.22519,-0.0682 -0.35898,-0.11362 -0.62599,-0.32506 -0.78545,-0.64889 l -0.13643,-0.30739 -0.035,-45.11419 -0.0332,-45.14837 -0.17136,-0.23901 c -0.0996,-0.13989 -0.31999,-0.34623 -0.47805,-0.44397 l -0.2733,-0.17136 -23.97437,-0.035 c -22.40511,-0.0263 -23.97465,-0.0438 -24.14515,-0.13642 -0.24917,-0.13642 -0.51845,-0.44535 -0.61479,-0.71709 -0.11896,-0.33275 -0.11896,-10.01511 0,-10.34791 0.10495,-0.29375 0.38187,-0.59014 0.68299,-0.75135 z m 32.95625,21.72037 c 4.68653,0.002 4.96888,7.4e-4 5.19103,0.10323 0.29936,0.13816 0.54573,0.38364 0.68298,0.68299 0.10323,0.22732 0.10323,1.37438 0.10323,33.67344 0,32.34623 9.8e-4,33.44264 -0.10323,33.67342 -0.13295,0.29358 -0.51529,0.62599 -0.81955,0.71725 -0.3644,0.11015 -9.96954,0.0752 -10.27962,-0.035 -0.4366,-0.15562 -0.73666,-0.45305 -0.85381,-0.88792 -0.0403,-0.14508 -0.0437,-11.47247 -0.035,-33.60511 v -33.33191 l 0.13642,-0.23903 c 0.15911,-0.29972 0.48749,-0.59365 0.78545,-0.68299 0.15912,-0.0489 1.64014,-0.0682 5.19103,-0.0682 z m 38.62538,0 h 5.02029 4.98613 l 0.3074,0.13644 c 0.36963,0.17309 0.62826,0.50707 0.71726,0.922 0.0875,0.40375 0.0856,66.42031 0,66.80043 -0.0857,0.37507 -0.28957,0.66271 -0.61479,0.85383 l -0.27331,0.17135 h -5.02029 c -4.13037,0.01 -5.08087,-0.002 -5.25932,-0.0682 -0.3331,-0.12415 -0.54957,-0.30704 -0.71727,-0.61479 l -0.17135,-0.2733 0.035,-33.53682 v -33.53682 l 0.20493,-0.2733 c 0.11015,-0.15737 0.2817,-0.3074 0.47806,-0.40987 z m 26.56991,0 c 3.74532,0 5.00794,0.0141 5.19103,0.0682 0.13988,0.042 0.3359,0.20021 0.47807,0.34148 0.47262,0.47195 0.46091,-1.96589 0.44395,24.52082 l -0.035,23.66701 -0.13642,0.23904 c -0.0698,0.12934 -0.18133,0.3226 -0.27331,0.40985 -0.37505,0.35601 -0.15388,0.34273 -5.66913,0.3415 -4.78389,-0.002 -5.03629,-0.0315 -5.25936,-0.13642 -0.28816,-0.13296 -0.52771,-0.3588 -0.64888,-0.64889 -0.0822,-0.19654 -0.10322,-2.63744 -0.10322,-24.00854 v -23.80362 l 0.13642,-0.23902 c 0.0682,-0.14697 0.20493,-0.33172 0.3074,-0.40987 0.44116,-0.3366 0.19338,-0.34149 5.56671,-0.34149 z m -92.00427,0.035 h 5.02028 c 3.60429,-0.0125 5.04965,-0.0141 5.22519,0.035 0.31265,0.0856 0.65396,0.3387 0.81955,0.64889 l 0.13642,0.27331 v 23.63287 c 0.0141,17.61805 0.017,23.70571 -0.0332,23.94023 -0.0787,0.37331 -0.3943,0.72547 -0.75136,0.88792 -0.2217,0.0996 -0.52876,0.13642 -5.29348,0.13642 -5.02187,0.002 -5.04541,-0.0141 -5.29348,-0.13642 -0.27803,-0.13816 -0.52877,-0.39658 -0.64889,-0.68299 -0.0664,-0.15738 -0.0682,-4.15826 -0.0682,-23.9744 v -23.76948 l 0.17135,-0.30738 c 0.12069,-0.22908 0.23518,-0.3833 0.44396,-0.51234 z" />
  </g>
</svg>
